<?xml version="1.0" encoding="iso-8859-1"?>
<!-- Uploaded to: SVG Repo, www.svgrepo.com, Generator: SVG Repo Mixer Tools -->
<svg fill="#000000" version="1.1" id="Layer_1" xmlns="http://www.w3.org/2000/svg" xmlns:xlink="http://www.w3.org/1999/xlink" 
	 viewBox="0 0 511.999 511.999" xml:space="preserve">
<g>
	<g>
		<rect x="81.112" y="409.162" width="34.807" height="21.728"/>
	</g>
</g>
<g>
	<g>
		<rect x="146.347" y="409.162" width="34.807" height="21.728"/>
	</g>
</g>
<g>
	<g>
		<rect x="211.572" y="409.162" width="34.807" height="21.728"/>
	</g>
</g>
<g>
	<g>
		<path d="M361.187,296.835v-34.077v-30.419l-120.395,64.497v-34.077v-30.418l-120.395,64.497v-34.077v-30.419L0,296.835v215.164
			h511.999V216.044L361.187,296.835z M276.799,461.302H50.698v-82.562h226.101V461.302z"/>
	</g>
</g>
<g>
	<g>
		<polygon points="391.604,246.034 458.316,210.296 448.996,0 337.771,0 328.221,215.491 391.604,181.537 391.604,211.956 		"/>
	</g>
</g>
<g>
	<g>
		<polygon points="271.209,246.034 311.787,224.295 306.128,74.135 230.432,74.135 225.461,206.045 271.209,181.537 
			271.209,211.956 		"/>
	</g>
</g>
</svg>