<?xml version="1.0" standalone="no"?>
<!DOCTYPE svg PUBLIC "-//W3C//DTD SVG 20010904//EN"
 "http://www.w3.org/TR/2001/REC-SVG-20010904/DTD/svg10.dtd">
<svg version="1.0" xmlns="http://www.w3.org/2000/svg"
 width="1257.000000pt" height="1280.000000pt" viewBox="0 0 1257.000000 1280.000000"
 preserveAspectRatio="xMidYMid meet">
<metadata>
Created by potrace 1.15, written by Peter Selinger 2001-2017
</metadata>
<g transform="translate(0.000000,1280.000000) scale(0.100000,-0.100000)"
fill="#000000" stroke="none">
<path d="M6547 12789 c-239 -23 -521 -105 -752 -219 -249 -122 -442 -264 -639
-471 l-116 -122 -132 66 c-304 150 -581 221 -913 234 -875 34 -1697 -461
-2080 -1252 -72 -148 -132 -315 -165 -457 l-22 -98 -42 -11 c-329 -85 -635
-241 -880 -448 -98 -82 -246 -232 -317 -321 -202 -251 -364 -589 -433 -903
-44 -198 -50 -263 -50 -492 0 -238 16 -365 69 -569 111 -427 373 -841 715
-1129 614 -517 1443 -666 2200 -395 124 44 332 148 445 222 l98 64 66 -18
c225 -62 503 -89 733 -71 138 11 336 44 428 71 30 9 39 7 60 -10 301 -240 592
-385 935 -465 178 -41 268 -50 510 -50 259 1 382 17 595 79 278 80 496 190
734 368 l119 90 46 -26 c108 -62 283 -146 371 -179 544 -203 1127 -190 1661
39 71 31 137 53 145 50 39 -15 273 -36 402 -36 601 0 1146 225 1572 650 608
605 814 1479 539 2293 -285 848 -1052 1441 -1953 1509 l-151 11 -130 127
c-263 257 -530 420 -864 530 -157 52 -357 94 -502 106 l-85 6 -34 67 c-52 101
-183 291 -267 387 -217 248 -424 409 -707 550 -373 185 -794 263 -1209 223z"/>
<path d="M5219 5426 c-15 -9 -30 -23 -34 -33 -3 -10 -118 -441 -255 -958 -137
-517 -303 -1146 -369 -1397 -81 -305 -119 -466 -115 -483 8 -33 49 -65 83 -65
14 0 214 45 444 101 230 56 420 99 423 97 2 -3 -310 -578 -693 -1279 -482
-881 -698 -1285 -701 -1311 -3 -31 1 -43 26 -68 32 -32 63 -37 99 -17 12 7
915 855 2007 1885 1323 1248 1988 1882 1992 1899 9 35 -6 72 -38 96 -28 21
-29 21 -190 4 -90 -9 -401 -42 -692 -72 -291 -31 -530 -54 -531 -53 -1 2 180
341 402 753 246 455 407 765 410 787 5 32 1 41 -25 68 -30 30 -31 30 -144 30
-62 0 -363 4 -668 10 -1284 21 -1403 22 -1431 6z"/>
</g>
</svg>
